<svg version="1.1" id="Layer_1" xmlns="http://www.w3.org/2000/svg" xmlns:xlink="http://www.w3.org/1999/xlink" x="0px" y="0px"
	 width="100%" viewBox="0 0 1024 1024" enable-background="new 0 0 1024 1024" xml:space="preserve">
<path fill="#000000" opacity="1.000000" stroke="none" 
	d="
M457.607086,362.617554 
	C462.205292,362.821716 461.885986,359.897156 461.884735,357.178558 
	C461.874542,335.346741 461.869598,313.514923 461.862274,291.683105 
	C461.859344,282.950836 461.858459,282.932831 470.764221,282.924835 
	C493.595917,282.904327 516.427612,282.890228 539.259338,282.898499 
	C545.730774,282.900848 546.142761,283.248230 546.124207,289.630646 
	C545.985168,337.456665 545.829163,385.282684 545.593567,433.108307 
	C545.572998,437.284546 546.919312,439.180389 551.387207,439.013275 
	C555.261780,438.868347 558.008911,438.888275 557.923096,433.553711 
	C557.628540,415.226349 557.798889,396.891479 557.795227,378.559479 
	C557.794922,376.893066 557.721680,375.219299 557.848206,373.561584 
	C558.263489,368.122253 561.462830,366.506683 565.842590,369.738007 
	C573.752014,375.573517 581.507202,381.617767 589.340271,387.557098 
	C595.182434,391.986877 600.936035,396.545868 606.943909,400.739532 
	C610.132202,402.964996 611.461731,405.452576 611.445190,409.430054 
	C611.301208,443.926971 611.370605,478.424774 611.363892,512.922302 
	C611.362549,520.007446 611.993652,520.368774 619.060913,520.349670 
	C638.553772,520.297119 658.047485,520.606873 677.540405,520.562622 
	C724.021301,520.457092 770.501831,520.224792 816.982605,520.067993 
	C819.476318,520.059570 821.987488,520.132385 824.460815,520.421631 
	C827.784668,520.810425 829.394043,522.801331 829.364807,526.205750 
	C829.337036,529.436401 827.683228,531.186890 824.624634,531.590576 
	C822.485657,531.872925 820.308533,531.973450 818.148438,531.973389 
	C762.652588,531.970764 707.155518,532.134155 651.661987,531.766174 
	C640.185181,531.690063 628.690674,532.675293 617.214050,531.569031 
	C614.917908,531.347778 612.571350,531.559937 611.418030,534.303284 
	C613.510437,536.865723 616.191711,535.992188 618.515686,535.993164 
	C691.010681,536.022034 763.505737,535.990417 836.000732,535.972168 
	C853.332886,535.967773 870.665100,535.973755 887.997253,535.987000 
	C889.829285,535.988403 891.668213,535.987122 893.491943,536.134644 
	C896.762634,536.399414 899.010742,538.183716 898.907288,541.492493 
	C898.810974,544.577820 896.510193,546.072144 893.468628,546.242432 
	C892.305115,546.307678 891.136475,546.294434 889.970154,546.294434 
	C642.153687,546.292114 394.337219,546.288757 146.520767,546.273193 
	C142.562912,546.272949 137.964920,546.996216 137.135788,541.370056 
	C136.605896,537.774292 139.943207,536.008850 146.639877,536.008789 
	C293.963043,536.008240 441.286224,536.013916 588.609375,536.015381 
	C599.323059,536.015503 599.115479,536.004272 599.130859,525.502686 
	C599.184326,488.842621 598.602661,452.180084 599.457825,415.523285 
	C599.529297,412.458557 598.760559,410.275604 596.060608,408.376007 
	C589.250427,403.584503 582.705261,398.416595 576.043945,393.412872 
	C574.604492,392.331665 573.252991,391.060822 571.405579,390.766785 
	C569.789490,392.200378 570.353455,393.986938 570.346436,395.561829 
	C570.290222,408.227203 570.407837,420.894135 570.253235,433.557892 
	C570.208618,437.213440 571.048706,438.957672 575.176880,439.091400 
	C582.433655,439.326538 589.179565,446.696472 589.187561,453.838287 
	C589.212830,476.503357 589.211426,499.168488 589.174377,521.833557 
	C589.161804,529.525024 588.235413,530.384216 580.489868,530.403564 
	C575.490234,530.416016 570.490417,530.424988 565.490967,530.394043 
	C558.688232,530.351868 557.819763,529.473999 557.814392,522.478149 
	C557.797791,500.979675 557.816223,479.481171 557.805725,457.982697 
	C557.802673,451.765778 553.714783,449.153870 547.755066,451.529114 
	C545.120911,452.578918 545.445923,454.958954 545.434814,457.057800 
	C545.369324,469.390015 545.396240,481.722626 545.352661,494.054993 
	C545.329529,500.612183 544.691895,501.267822 538.252319,501.307587 
	C530.919861,501.352814 523.584229,501.198944 516.255005,501.358887 
	C511.823792,501.455597 509.796967,499.585876 509.811951,495.162201 
	C509.867889,478.663544 509.882050,462.164612 509.847748,445.665894 
	C509.838135,441.050537 512.062561,438.952972 516.592957,439.000702 
	C520.258667,439.039368 523.937317,438.786865 527.588684,439.012146 
	C531.784973,439.271057 533.083435,437.459930 533.051453,433.421722 
	C532.924866,417.424072 533.065857,401.424500 533.056763,385.425690 
	C533.041199,357.927612 532.990112,330.429565 532.947998,302.931488 
	C532.937500,296.108276 532.927185,296.062073 525.936218,296.033447 
	C510.604462,295.970612 495.270874,296.070282 479.941559,295.852997 
	C475.860870,295.795166 474.319397,297.118561 474.345123,301.244202 
	C474.463593,320.242035 474.420807,339.241302 474.337677,358.239624 
	C474.323608,361.457977 475.579651,362.781036 478.789154,362.652313 
	C482.282990,362.512177 485.787292,362.647888 489.286926,362.635376 
	C492.591339,362.623566 494.217010,364.296234 494.217499,367.548218 
	C494.220703,389.379852 494.219452,411.211456 494.193054,433.043091 
	C494.187866,437.329926 491.545868,438.879272 487.694061,438.900970 
	C480.208282,438.943085 472.722107,438.913300 465.424683,438.913300 
	C463.673187,440.919312 464.351532,443.009644 464.347687,444.913269 
	C464.294769,471.078064 464.318634,497.242950 464.294800,523.407837 
	C464.289001,529.766907 463.707886,530.328857 457.497040,530.372620 
	C452.997528,530.404297 448.497589,530.409790 443.998047,530.385864 
	C437.446381,530.350952 436.784698,529.711243 436.781097,523.224548 
	C436.768707,500.892761 436.781433,478.560944 436.784546,456.229156 
	C436.784821,454.280396 436.784607,452.331635 436.784607,450.049957 
	C432.061462,450.644501 428.567047,452.613647 425.031189,454.314148 
	C422.615692,455.475800 423.252808,458.053223 423.249786,460.148346 
	C423.220001,480.980164 423.247894,501.812042 423.235748,522.643921 
	C423.231110,530.636536 421.932434,532.005371 413.980194,532.003723 
	C346.985931,531.989868 279.991669,531.945679 212.997437,531.893372 
	C211.338013,531.892090 209.637924,531.883667 208.028183,531.542114 
	C205.006287,530.901001 203.543442,528.840820 203.599579,525.767456 
	C203.652557,522.867554 205.154770,521.041565 207.999924,520.563171 
	C209.960220,520.233521 211.972061,520.071289 213.960907,520.071045 
	C246.125259,520.067383 278.289764,520.052429 310.453918,520.144043 
	C333.272980,520.208984 356.091492,520.492859 378.910553,520.547729 
	C387.570312,520.568542 396.233063,520.029297 404.890381,520.122009 
	C409.385284,520.170105 411.011688,518.667603 410.964172,514.054138 
	C410.758209,494.057526 410.856293,474.057770 410.849579,454.059143 
	C410.846954,446.210297 411.036987,445.946381 418.319733,443.146088 
	C422.828705,441.412354 427.272125,439.477722 431.861115,437.992035 
	C435.637665,436.769348 436.901978,434.614380 436.865234,430.629883 
	C436.680878,410.632996 436.771637,390.633423 436.803558,370.634827 
	C436.815735,363.003754 437.175812,362.678741 444.670197,362.645325 
	C448.832245,362.626740 452.994385,362.632996 457.607086,362.617554 
M449.843811,429.737213 
	C453.021851,430.602081 455.388580,427.828430 458.346649,427.822693 
	C461.307037,427.816925 461.872620,426.079132 461.865509,423.594910 
	C461.823212,408.812805 461.782471,394.030212 461.856842,379.248413 
	C461.882629,374.126068 458.269531,375.047577 455.242004,374.989532 
	C452.224792,374.931610 449.144196,374.587097 449.199921,379.302704 
	C449.396179,395.905243 449.397675,412.510132 449.843811,429.737213 
M576.501648,515.674438 
	C576.613037,496.213531 576.728271,476.752625 576.822754,457.291626 
	C576.826721,456.468842 576.810974,455.573059 576.504578,454.835907 
	C575.696472,452.891388 574.379089,451.222229 572.052673,451.603546 
	C569.729675,451.984375 570.300415,454.145538 570.296143,455.685181 
	C570.242554,474.985413 570.200806,494.286011 570.272522,513.586060 
	C570.289673,518.199585 571.697144,518.779602 576.501648,515.674438 
M522.277466,474.491516 
	C522.286194,477.815308 522.444641,481.147217 522.265137,484.460815 
	C522.048767,488.454315 524.312927,489.127960 527.584717,489.128143 
	C530.884277,489.128326 533.026672,488.311035 532.987549,484.423523 
	C532.890625,474.785797 532.890869,465.145691 532.991211,455.507996 
	C533.030334,451.751129 530.932739,451.197937 527.858826,451.252899 
	C524.808228,451.307434 522.133301,451.331116 522.224182,455.546692 
	C522.353088,461.526794 522.268433,467.511475 522.277466,474.491516 
M481.677216,424.752686 
	C481.750946,409.963806 481.847870,395.174957 481.875183,380.386017 
	C481.879669,377.974335 482.359009,375.105682 478.464264,375.036194 
	C474.614990,374.967499 474.352722,377.465851 474.359070,380.378723 
	C474.388672,394.007935 474.328949,407.637299 474.369507,421.266418 
	C474.386322,426.912170 475.833801,427.741119 481.677216,424.752686 
M449.238831,483.499939 
	C449.238831,494.730499 449.238831,505.961090 449.238831,517.191650 
	C449.946442,517.172180 450.654083,517.152710 451.361694,517.133179 
	C451.361694,492.872559 451.361694,468.611938 451.361694,443.787628 
	C450.367523,444.550812 449.673828,444.831787 449.669586,445.122833 
	C449.487488,457.581299 449.366730,470.040649 449.238831,483.499939 
z"/>
<path fill="#000000" opacity="1.000000" stroke="none" 
	d="
M772.234375,678.333435 
	C763.812256,679.351807 755.889587,679.482483 747.873718,678.531555 
	C740.276550,677.630371 735.794983,673.617432 733.506836,666.608521 
	C730.038696,655.984924 730.683289,645.223877 732.801270,634.535156 
	C735.647522,620.171509 738.845032,605.871521 743.652954,592.002930 
	C745.299194,587.254333 747.592529,582.808167 751.055603,579.082153 
	C755.566650,574.228577 760.906982,571.462158 767.793823,571.565125 
	C780.954285,571.761841 794.120544,571.678406 807.283020,571.560974 
	C811.174500,571.526306 812.847046,572.460266 811.593689,576.792419 
	C810.023804,582.218628 808.945007,587.793457 807.808655,593.335815 
	C807.200806,596.300476 805.658813,597.408875 802.614319,597.359314 
	C793.618958,597.212646 784.616028,597.460449 775.623108,597.253052 
	C770.750854,597.140747 767.599304,599.157227 766.050720,603.606262 
	C761.440491,616.851562 758.439453,630.507263 756.491943,644.360779 
	C755.666260,650.234558 758.188965,652.477051 764.274536,652.684387 
	C773.329529,652.992798 773.816101,652.589661 775.830566,643.634888 
	C776.853210,639.088806 778.042969,634.579590 779.017883,630.023865 
	C779.644531,627.095642 781.259888,625.839050 784.259094,625.896179 
	C788.922058,625.985046 793.590759,625.770081 798.253906,625.855713 
	C800.924255,625.904724 802.559204,624.876160 803.700317,622.431702 
	C807.519287,614.251526 812.723022,607.272461 821.129028,603.212708 
	C822.987183,602.315308 823.382019,600.546143 823.781494,598.680786 
	C825.314514,591.522095 827.193176,584.430542 828.506165,577.234192 
	C829.297668,572.896301 831.395874,571.371521 835.665222,571.691895 
	C839.641846,571.990356 843.659058,571.712769 847.657410,571.765076 
	C853.325378,571.839172 853.813354,572.463074 852.612366,577.862549 
	C850.922607,585.459290 849.220032,593.053101 847.423096,601.094788 
	C852.349121,602.135071 856.792847,601.671082 861.196289,601.549805 
	C863.676147,601.481567 863.781433,599.225525 864.180603,597.527832 
	C865.817810,590.564331 867.439941,583.594238 868.865906,576.585571 
	C869.577026,573.090332 871.168884,571.438232 874.962341,571.687866 
	C879.442017,571.982727 883.956421,571.710632 888.454346,571.778259 
	C893.670593,571.856628 894.166504,572.545288 893.053467,577.764648 
	C891.887878,583.230713 890.715332,588.695374 889.775696,594.283386 
	C894.662781,585.460388 900.624451,577.859924 910.369263,574.087524 
	C914.142639,572.626770 918.001282,571.773621 922.058044,571.776794 
	C935.054871,571.786926 948.051819,571.740601 961.048523,571.773560 
	C967.053894,571.788818 967.595093,572.500366 966.292175,578.126282 
	C965.240479,582.667542 963.979919,587.170837 963.168030,591.754089 
	C962.438904,595.870300 960.632385,597.908508 956.165894,597.408508 
	C953.039551,597.058533 949.831665,597.506104 946.678528,597.306702 
	C943.201111,597.086792 941.721741,598.520142 940.943359,601.935608 
	C935.840942,624.324036 930.472107,646.651489 925.318970,669.028564 
	C923.425049,677.252625 923.584351,677.286011 914.956177,677.279480 
	C911.623657,677.276917 908.291199,677.304260 904.958679,677.298523 
	C898.817383,677.288025 898.551758,676.905396 899.925476,671.122803 
	C905.270447,648.623108 910.592896,626.117981 915.895203,603.608154 
	C917.309448,597.604126 917.084290,597.497131 910.957520,597.335205 
	C902.714355,597.117310 896.477844,600.763916 890.543945,606.214539 
	C885.919128,610.462708 884.224304,615.486206 882.952576,621.231079 
	C879.140625,638.451050 874.970520,655.591431 871.074829,672.793396 
	C870.318359,676.133606 868.767578,677.542603 865.254822,677.360779 
	C860.435791,677.111267 855.586548,677.141113 850.763977,677.357422 
	C846.677063,677.540771 845.926025,675.793884 846.797791,672.191467 
	C850.045410,658.771912 853.177979,645.324280 856.306091,631.876160 
	C856.748840,629.972473 857.507935,628.066711 856.938232,625.795532 
	C852.725342,624.668884 848.416443,625.236938 844.152161,625.411316 
	C841.777405,625.508545 841.584717,627.581970 841.160522,629.400330 
	C837.871765,643.497131 834.432190,657.559998 831.297668,671.690735 
	C830.395203,675.759277 828.754944,677.750305 824.293518,677.380676 
	C819.825134,677.010498 815.295715,677.142883 810.805542,677.339294 
	C806.823792,677.513489 805.883972,675.953979 806.791260,672.224243 
	C810.016357,658.966736 813.074463,645.668518 816.158691,632.377075 
	C816.565186,630.625549 816.756592,628.824036 817.059082,626.975220 
	C810.200378,627.454712 802.039429,634.327576 800.425598,640.928284 
	C797.936035,651.110779 795.464600,661.301147 793.250000,671.545410 
	C792.422302,675.374207 790.809814,677.369751 786.640930,677.388733 
	C781.992065,677.409851 777.345764,677.984192 772.234375,678.333435 
z"/>
<path fill="#000000" opacity="1.000000" stroke="none" 
	d="
M191.366608,638.309082 
	C191.073807,639.852722 190.778839,640.984314 190.610275,642.134338 
	C189.743301,648.049194 191.964813,651.184692 197.918701,651.577393 
	C206.233093,652.125793 214.564224,652.061584 222.823746,650.615906 
	C223.948105,650.419067 225.100067,650.379883 226.112335,650.280212 
	C227.755600,651.873474 227.060455,653.493591 226.713516,655.099365 
	C225.553909,660.466919 224.229019,665.808105 223.332718,671.219971 
	C222.674438,675.194702 221.185913,677.260498 216.710571,677.610168 
	C205.442520,678.490662 194.268875,679.934814 182.887161,678.593018 
	C174.274963,677.577576 169.716110,672.658997 167.752075,664.927795 
	C165.115753,654.550354 166.257828,644.057495 168.159485,633.730835 
	C169.813828,624.747192 172.178543,615.894714 174.214096,606.980774 
	C174.572800,605.410034 175.310455,603.815063 173.847137,601.740112 
	C168.648804,604.947693 163.372665,607.775146 162.015579,614.614441 
	C159.298187,628.309265 156.956589,642.102417 152.017151,655.252991 
	C150.308792,659.801208 148.070877,664.062622 145.093140,667.911743 
	C140.323883,674.076660 134.264114,677.423645 126.229881,677.320740 
	C112.241058,677.141663 98.246712,677.187927 84.257576,677.366516 
	C80.170433,677.418701 78.912971,676.171814 79.849289,672.088623 
	C87.134529,640.318115 94.372261,608.536133 101.424072,576.713257 
	C102.312401,572.704468 104.304123,571.696960 108.003357,571.747314 
	C118.494797,571.890198 128.989517,571.789917 139.482941,571.791077 
	C154.782593,571.792786 162.921524,579.284119 164.151382,594.554382 
	C164.296539,596.356812 164.171112,598.181091 165.001846,600.268372 
	C166.445114,597.577820 167.844162,594.862366 169.339142,592.200806 
	C176.919098,578.705933 187.404205,570.471924 203.948425,571.503174 
	C214.899475,572.185852 225.927017,571.599243 236.919678,571.674988 
	C242.223892,571.711609 242.741730,572.427002 241.640961,577.612488 
	C240.569962,582.657715 239.163956,587.646729 238.382553,592.733765 
	C237.763336,596.764893 235.615372,597.957642 231.906830,597.905823 
	C225.412766,597.815063 218.915817,597.952881 212.420044,597.957031 
	C201.822647,597.963806 200.129303,599.504578 198.687866,611.084412 
	C203.677002,612.242065 208.791550,611.578186 213.826920,611.642151 
	C226.152115,611.798584 225.073853,610.411560 222.504532,622.701721 
	C219.904434,635.138977 221.269455,633.000610 209.515121,633.185547 
	C205.518661,633.248474 201.508972,633.376160 197.526108,633.133484 
	C193.890350,632.911926 191.770248,634.153015 191.366608,638.309082 
M134.081787,636.673157 
	C136.514252,626.155518 139.091415,615.668701 141.333908,605.110657 
	C143.166336,596.483337 139.766296,592.415894 131.224899,592.426941 
	C129.561707,592.429077 127.898209,592.463928 126.235367,592.442627 
	C122.586166,592.395874 120.574821,593.780457 119.812561,597.742859 
	C117.867752,607.852417 115.439941,617.869019 113.206009,627.922913 
	C111.344650,636.300110 109.484161,644.677490 107.619522,653.071716 
	C111.227844,654.523132 114.418205,653.897156 117.520782,653.944824 
	C126.739845,654.086609 129.417435,652.098145 132.300339,643.232056 
	C132.915817,641.339172 133.347519,639.386475 134.081787,636.673157 
z"/>
<path fill="#000000" opacity="1.000000" stroke="none" 
	d="
M207.996674,704.775391 
	C254.319138,704.705750 300.142975,704.658081 345.966827,704.652893 
	C503.769745,704.634827 661.572632,704.621094 819.375549,704.634521 
	C843.034485,704.636536 866.693542,704.761841 890.352051,704.918640 
	C893.167542,704.937256 897.511841,703.983276 897.603149,708.088257 
	C897.713928,713.067261 892.980408,711.255066 890.236206,711.278748 
	C871.907837,711.437500 853.577332,711.365723 835.247559,711.361938 
	C832.911560,711.361511 830.683594,711.317810 828.766296,713.204346 
	C826.768066,715.170410 824.014160,714.360352 821.579895,714.360962 
	C707.768494,714.389954 593.957153,714.378967 480.145782,714.379883 
	C391.829498,714.380615 303.513245,714.394104 215.196960,714.386169 
	C211.605316,714.385803 207.962875,714.970764 204.881226,711.965515 
	C203.957916,711.065063 201.709137,711.385498 200.067093,711.381775 
	C182.070648,711.341431 164.074081,711.349060 146.077560,711.338318 
	C144.744965,711.337524 143.409195,711.345459 142.080612,711.260132 
	C140.226044,711.141113 138.806137,710.399841 138.822021,708.278137 
	C138.837341,706.231750 140.220535,705.313538 142.023239,705.095947 
	C143.669708,704.897217 145.348328,704.925598 147.012924,704.922119 
	C167.174637,704.879639 187.336349,704.849915 207.996674,704.775391 
z"/>
<path fill="#000000" opacity="1.000000" stroke="none" 
	d="
M539.101074,601.733032 
	C548.263977,601.462280 547.981384,603.528809 550.066223,593.207458 
	C551.219177,587.499817 552.694885,581.857605 553.871094,576.154114 
	C554.520142,573.006592 556.175537,571.665894 559.423218,571.783081 
	C564.083740,571.951477 568.757019,571.920532 573.420593,571.804260 
	C577.487610,571.702881 578.709778,573.323303 577.770691,577.329590 
	C573.743347,594.509949 569.891541,611.731323 565.962708,628.934814 
	C562.665161,643.374023 559.265686,657.790710 556.098877,672.258423 
	C555.272705,676.032959 553.480652,677.552612 549.594727,677.308655 
	C545.279114,677.037720 540.931885,677.302551 536.598938,677.268188 
	C531.382263,677.226868 530.864929,676.598389 532.079956,671.324280 
	C535.068542,658.351379 538.139160,645.397339 541.161499,632.432190 
	C541.646851,630.349792 542.311768,628.278809 541.953735,625.832642 
	C537.730286,624.567444 533.420044,625.338074 529.164001,625.332031 
	C527.055847,625.328979 526.522156,626.881409 526.112488,628.639465 
	C522.864929,642.577698 519.270813,656.444031 516.430115,670.463562 
	C515.350098,675.793640 513.324829,677.929993 507.884735,677.337341 
	C503.932434,676.906799 499.886261,677.111023 495.896210,677.313721 
	C491.214478,677.551392 491.163666,675.032593 491.985992,671.577271 
	C495.029175,658.789551 497.986389,645.981384 501.012573,633.189514 
	C501.436066,631.399353 501.920044,629.643066 501.493439,627.264526 
	C493.813568,626.765930 490.595001,634.315918 484.594452,637.376038 
	C484.292908,636.095459 483.879059,635.395386 484.043091,634.878967 
	C487.920776,622.670349 492.411804,610.803284 504.502899,604.113586 
	C507.111603,602.670166 508.324615,600.784546 508.914032,597.959045 
	C510.374939,590.955994 512.276306,584.042542 513.649231,577.024353 
	C514.383118,573.272827 515.948669,571.502014 519.968811,571.745911 
	C524.618652,572.028015 529.297913,571.834839 533.964355,571.832581 
	C537.231323,571.831055 538.435425,573.149536 537.577332,576.538818 
	C536.025146,582.670044 534.766785,588.875610 533.378357,595.048462 
	C531.899170,601.624512 531.895386,601.623657 539.101074,601.733032 
z"/>
<path fill="#000000" opacity="1.000000" stroke="none" 
	d="
M651.871338,605.603027 
	C649.225525,621.439514 646.110596,636.733154 642.221924,651.863770 
	C641.143738,656.059204 639.650085,660.103455 637.692627,663.990601 
	C633.787048,671.746643 627.425049,675.977661 618.993530,677.344910 
	C608.594727,679.031250 598.185486,679.739136 587.778137,677.449585 
	C577.844849,675.264221 572.154175,668.259216 571.649109,658.025635 
	C571.259583,650.132568 572.534058,642.413025 574.058167,634.766235 
	C576.395569,623.038696 578.987000,611.353516 581.811951,599.733276 
	C586.400208,580.860046 594.013977,574.135315 612.983459,571.320251 
	C620.164795,570.254578 627.281006,570.626404 634.324585,571.997742 
	C647.704468,574.602722 654.933533,585.127197 652.968811,598.774414 
	C652.661011,600.912659 652.313965,603.045288 651.871338,605.603027 
M616.814026,650.188293 
	C622.336670,634.808960 625.109070,618.741821 628.438538,602.829041 
	C629.248352,598.958252 627.373047,595.289551 623.102783,594.445496 
	C613.220398,592.492065 607.392700,595.047607 605.237610,604.412598 
	C603.375671,612.503296 601.323303,620.552246 599.585510,628.668945 
	C598.231323,634.994019 597.065002,641.370911 596.142517,647.771973 
	C595.668945,651.058228 596.567505,654.077087 600.140259,655.538757 
	C605.840210,657.870605 612.649109,655.943909 616.814026,650.188293 
z"/>
<path fill="#000000" opacity="1.000000" stroke="none" 
	d="
M688.381775,582.251221 
	C683.656128,602.922058 679.089233,623.202759 674.292969,643.429138 
	C673.247009,647.840027 673.088379,651.724854 677.051331,654.633240 
	C680.219543,656.958496 687.315247,656.321045 690.739624,653.580872 
	C694.142151,650.858276 695.925659,647.213379 696.878784,643.009216 
	C701.768066,621.442200 706.891113,599.926208 711.535400,578.307068 
	C712.618347,573.266235 714.563599,571.124573 719.784485,571.630920 
	C723.909790,572.031067 728.108093,571.835388 732.266541,571.690063 
	C736.112793,571.555725 737.276611,572.998779 736.391174,576.821289 
	C732.487915,593.672729 728.739441,610.559998 724.965698,627.441223 
	C723.078796,635.882141 721.242615,644.334473 719.410583,652.787537 
	C715.992065,668.560791 707.623413,676.310730 691.497681,678.124390 
	C683.736755,678.997253 675.957153,679.425903 668.105164,678.370361 
	C655.667725,676.698486 647.563721,667.136414 650.096558,654.833801 
	C655.560608,628.293152 661.793823,601.911194 667.635315,575.447327 
	C668.211670,572.836243 669.595154,571.801392 672.126831,571.820068 
	C676.456665,571.852051 680.791443,571.936768 685.115784,571.775818 
	C689.427979,571.615417 690.989563,573.258179 689.524475,577.481140 
	C689.036194,578.888550 688.806274,580.385498 688.381775,582.251221 
z"/>
<path fill="#000000" opacity="1.000000" stroke="none" 
	d="
M294.442596,625.353516 
	C292.982361,633.160583 292.982361,633.159363 285.388855,633.171997 
	C280.058929,633.180847 274.725677,633.310303 269.400299,633.159912 
	C266.291840,633.072205 264.773712,634.408875 264.352722,637.367310 
	C264.165771,638.681213 263.758057,639.962402 263.537201,641.273010 
	C262.353119,648.299500 264.705566,651.402954 271.822998,651.664917 
	C279.474396,651.946533 287.137482,652.076050 294.750854,650.807434 
	C296.305634,650.548401 297.956970,649.661560 300.254517,651.213013 
	C298.525330,658.964417 296.778503,667.001770 294.902344,675.008850 
	C294.575775,676.402588 293.228973,677.065186 291.829773,677.221313 
	C279.930084,678.549011 268.022614,680.292725 256.032593,678.571411 
	C246.163147,677.154663 241.892014,672.845276 239.867752,663.001709 
	C237.738266,652.646301 239.299164,642.432190 241.285873,632.302551 
	C243.012939,623.496887 245.272736,614.796204 247.258148,606.040283 
	C247.575912,604.638794 247.689423,603.190979 247.933945,601.513672 
	C242.302353,602.042908 240.667252,608.007263 236.318237,609.392517 
	C235.175430,608.344177 235.295898,607.505737 235.579468,606.718140 
	C239.455032,595.954102 244.346909,585.774780 253.422684,578.333252 
	C258.843231,573.888733 265.074127,571.472351 272.286591,571.575684 
	C284.443207,571.749817 296.604034,571.617371 308.762939,571.648987 
	C315.600464,571.666748 315.878357,572.086487 314.235321,578.912170 
	C313.144989,583.441711 311.927917,587.952087 311.109406,592.532104 
	C310.401459,596.493408 308.528992,598.131958 304.375946,597.972717 
	C297.391418,597.704834 290.388031,597.910156 283.392731,597.948975 
	C275.758301,597.991333 273.422943,600.021301 271.704773,607.438538 
	C270.966766,610.624634 272.000397,611.734558 275.121674,611.687622 
	C280.949921,611.599915 286.781982,611.746948 292.609558,611.639465 
	C296.357941,611.570312 297.921570,612.832642 296.641754,616.734070 
	C295.762268,619.414978 295.209167,622.202881 294.442596,625.353516 
z"/>
<path fill="#000000" opacity="1.000000" stroke="none" 
	d="
M345.043610,647.328186 
	C331.678833,647.630371 334.628937,645.188171 331.319061,658.049744 
	C330.036316,663.034119 329.104553,668.110535 328.074310,673.157532 
	C327.495178,675.994629 326.084442,677.457581 322.952362,677.333496 
	C318.299652,677.149292 313.626343,677.125977 308.976227,677.343323 
	C304.766937,677.540100 303.831207,675.940369 304.743347,671.959961 
	C311.276398,643.451843 317.586121,614.892578 324.123322,586.385437 
	C327.462006,571.826172 327.608063,571.853577 342.439117,571.805969 
	C349.595764,571.783020 356.752808,571.740845 363.909088,571.790955 
	C375.029266,571.868835 382.715210,577.201965 385.071838,587.877686 
	C389.259003,606.845886 384.594299,624.153748 373.125305,639.566467 
	C369.034668,645.063782 362.930359,647.383972 356.020172,647.328979 
	C352.525269,647.301086 349.029938,647.326477 345.043610,647.328186 
M342.081787,611.349121 
	C341.175446,615.486877 340.269104,619.624573 339.366364,623.745850 
	C353.893799,627.022644 359.778473,623.466431 363.170685,609.815552 
	C363.250580,609.494019 363.384705,609.185181 363.453705,608.861877 
	C366.146210,596.246948 362.730835,592.291565 350.024719,593.052246 
	C347.298676,593.215454 345.746582,594.113159 345.214844,596.937256 
	C344.357544,601.490173 343.241211,605.994263 342.081787,611.349121 
z"/>
<path fill="#000000" opacity="1.000000" stroke="none" 
	d="
M459.214172,664.035522 
	C455.822205,677.283936 455.822052,677.240051 442.352081,677.285339 
	C429.064117,677.330017 431.774811,677.184875 434.051086,666.971497 
	C438.683807,646.185059 443.625488,625.467529 448.384888,604.708984 
	C449.940643,597.923523 449.355316,597.369568 442.230927,597.313354 
	C434.720001,597.254150 428.753784,600.392090 423.738403,605.757935 
	C422.445740,607.140869 421.489868,609.070618 419.519653,609.307129 
	C418.531647,608.723389 418.277466,608.103516 418.469666,607.422607 
	C421.975128,595.002502 426.991730,583.512634 438.524780,576.306580 
	C443.116028,573.437866 448.197876,571.837402 453.673218,571.826355 
	C466.835236,571.799866 479.997467,571.778198 493.159332,571.828796 
	C499.072327,571.851562 499.642761,572.618530 498.304047,578.245056 
	C497.071136,583.426941 495.657806,588.568909 494.553497,593.777100 
	C493.997894,596.397400 492.654053,597.415527 490.075348,597.347290 
	C486.578979,597.254700 483.063019,597.524414 479.583771,597.262817 
	C475.736603,596.973389 473.981689,598.352417 473.129089,602.270386 
	C468.671387,622.754944 463.931549,643.178101 459.214172,664.035522 
z"/>
</svg>